<?xml version="1.0" standalone="no"?>
<!DOCTYPE svg PUBLIC "-//W3C//DTD SVG 1.1//EN" "http://www.w3.org/Graphics/SVG/1.1/DTD/svg11.dtd">
<svg version="1.1" xmlns="http://www.w3.org/2000/svg" viewBox="0 0 41.97536618422964 41.97536618422964" width="41.97536618422964" height="41.97536618422964"><!-- svg-source:excalidraw --><metadata></metadata><defs><style class="style-fonts">
      </style></defs><g stroke-linecap="round" transform="translate(10 9.999999999999545) rotate(0 10.987683092115276 10.987683092115049)"><path d="M11.88 0.43 C14.01 0.25, 16.2 1.05, 17.94 2.51 C19.68 3.96, 21.97 6.7, 22.32 9.16 C22.67 11.62, 21.42 15.2, 20.04 17.27 C18.65 19.33, 16.26 20.95, 14.04 21.54 C11.82 22.13, 8.82 21.79, 6.73 20.79 C4.63 19.79, 2.62 17.57, 1.47 15.55 C0.32 13.54, -0.62 10.96, -0.18 8.7 C0.26 6.43, 2.18 3.41, 4.13 1.97 C6.07 0.52, 10.24 0.34, 11.48 0.01 C12.72 -0.33, 11.53 -0.29, 11.58 -0.07 M14.15 -0.01 C16.38 0.41, 17.91 2.73, 19.2 4.62 C20.5 6.51, 21.83 8.96, 21.92 11.31 C22.01 13.66, 21.39 16.98, 19.72 18.71 C18.06 20.44, 14.45 21.46, 11.92 21.69 C9.4 21.92, 6.4 21.25, 4.59 20.08 C2.77 18.91, 1.59 16.92, 1.03 14.7 C0.47 12.48, 0.36 9.07, 1.23 6.75 C2.11 4.43, 4.24 1.94, 6.28 0.78 C8.33 -0.38, 12.27 -0.06, 13.5 -0.21 C14.73 -0.35, 13.64 -0.23, 13.66 -0.08" stroke="none" stroke-width="0" fill="#0e0e08"></path><path d="M9.73 0.47 C11.89 -0.01, 14.46 0.58, 16.41 1.79 C18.37 3.01, 20.7 5.51, 21.47 7.76 C22.23 10.01, 21.85 13.2, 20.99 15.28 C20.13 17.37, 18.35 19.16, 16.31 20.25 C14.27 21.35, 11.07 22.32, 8.77 21.85 C6.47 21.38, 4.02 19.33, 2.51 17.43 C0.99 15.53, -0.39 12.81, -0.34 10.45 C-0.29 8.09, 1.15 4.98, 2.81 3.26 C4.47 1.54, 8.45 0.62, 9.65 0.13 C10.84 -0.36, 9.89 0.21, 9.99 0.33 M8.88 0.73 C11.1 0.23, 14.69 0.78, 16.82 1.95 C18.95 3.12, 21 5.7, 21.65 7.77 C22.3 9.85, 21.72 12.13, 20.72 14.38 C19.71 16.64, 17.64 19.99, 15.62 21.31 C13.6 22.64, 10.79 22.81, 8.6 22.34 C6.42 21.88, 3.92 20.47, 2.49 18.53 C1.07 16.59, 0.12 13.06, 0.05 10.72 C-0.03 8.38, 0.51 6.13, 2.03 4.47 C3.55 2.81, 8.03 1.42, 9.17 0.75 C10.3 0.09, 8.73 0.3, 8.85 0.48" stroke="#343a40" stroke-width="4" fill="none"></path></g></svg>